<svg width="17" height="17" viewBox="0 0 17 17" fill="none" xmlns="http://www.w3.org/2000/svg">
<path d="M9.16667 6.45L6.625 4.54167V12.0417L9.16667 10.1333L11.625 8.29167L9.16667 6.45ZM9.16667 6.45L6.625 4.54167V12.0417L9.16667 10.1333L11.625 8.29167L9.16667 6.45ZM9.16667 6.45L6.625 4.54167V12.0417L9.16667 10.1333L11.625 8.29167L9.16667 6.45ZM7.45833 1.68333V0C5.78333 0.166667 4.25833 0.833333 3.025 1.84167L4.20833 3.03333C5.14996 2.29824 6.27301 1.83174 7.45833 1.68333ZM3.03333 4.20833L1.84167 3.025C0.80401 4.28882 0.163255 5.83127 0 7.45833H1.68333C1.83333 6.24167 2.31667 5.13333 3.03333 4.20833ZM1.68333 9.125H0C0.166667 10.8 0.833333 12.325 1.84167 13.5583L3.03333 12.3667C2.29697 11.429 1.83023 10.3082 1.68333 9.125ZM3.025 14.7417C4.28965 15.7779 5.83166 16.4185 7.45833 16.5833V14.9C6.27301 14.7516 5.14996 14.2851 4.20833 13.55L3.025 14.7417ZM16.625 8.29167C16.625 12.5917 13.3583 16.1417 9.16667 16.5833V14.9C12.4333 14.4667 14.9583 11.6667 14.9583 8.29167C14.9583 4.91667 12.4333 2.11667 9.16667 1.68333V0C13.3583 0.441667 16.625 3.99167 16.625 8.29167Z" fill="#939393"/>
</svg>
